:FULLY-SPECIFIED
:FORCE-ALL-JOINTS-BE-3DOF
:DEGREES
442
root 1.48949 15.2316 -9.1147 5.49212 4.83139 -13.5423
lfemur -46.8501 16.8114 3.9745
ltibia 62.9553 0 0
lfoot -24.9916 -10.2701 0
ltoes -12.7255 0 0
rfemur -14.9411 -3.44768 8.90199
rtibia 38.8284 0 0
rfoot -14.6389 -13.9723 0
rtoes -49.791 0 0
lowerback 6.02945 1.6015 4.3986
upperback 1.01281 2.43843 0.924751
thorax -2.1908 1.18676 -1.7001
lowerneck -7.15866 0.0337935 5.62298
upperneck 0.687406 -0.434285 0.0690367
head 1.41974 -0.189785 -0.949097
lclavicle 2.90226e-14 6.36111e-15 0
lhumerus -39.6318 -28.4329 97.6213
lradius 54.1431 0 0
lwrist 7.92235 0 0
lhand -20.0855 -1.30814 0
lfingers 7.12502 0 0
lthumb 6.25724 28.5794 0
rclavicle 2.90226e-14 6.36111e-15 0
rhumerus -48.3514 -2.52445 -89.7222
rradius 66.3347 0 0
rwrist 12.906 0 0
rhand -30.9208 -29.1118 0
rfingers 7.12502 0 0
rthumb -4.20662 -779.05 0
443
root 1.54028 15.267 -9.04863 5.51173 6.67259 -13.7326
lfemur -47.4334 17.0298 3.56606
ltibia 63.009 0 0
lfoot -24.9743 -10.4555 0
ltoes -12.2551 0 0
rfemur -13.9485 -3.32694 8.97013
rtibia 38.3678 0 0
rfoot -13.9952 -14.3003 0
rtoes -51.1182 0 0
lowerback 5.85671 1.53373 4.47678
upperback 0.941033 2.34655 1.01139
thorax -2.17414 1.14042 -1.64719
lowerneck -7.19957 -0.171866 5.46812
upperneck 0.668554 -0.699834 0.14041
head 1.41004 -0.32229 -0.909867
lclavicle 2.84006e-14 4.97146e-15 0
lhumerus -39.7279 -28.4784 97.8754
lradius 54.1946 0 0
lwrist 7.60617 0 0
lhand -20.1943 -1.66098 0
lfingers 7.12502 0 0
lthumb 6.15222 28.2298 0
rclavicle 2.84006e-14 4.97146e-15 0
rhumerus -48.5879 -2.73253 -89.4851
rradius 66.1624 0 0
rwrist 12.8522 0 0
rhand -30.9814 -29.335 0
rfingers 7.12502 0 0
rthumb -4.26515 -779.272 0
444
root 1.59107 15.3024 -8.98255 5.50448 8.53991 -13.9041
lfemur -48.0042 17.2735 2.98449
ltibia 63.0034 0 0
lfoot -24.9053 -10.5176 0
ltoes -11.6002 0 0
rfemur -12.9202 -3.22534 9.08487
rtibia 37.9008 0 0
rfoot -13.0138 -14.6123 0
rtoes -52.2279 0 0
lowerback 5.64709 1.46415 4.56329
upperback 0.861212 2.25023 1.10043
thorax -2.14533 1.09196 -1.59595
lowerneck -7.24291 -0.380507 5.31559
upperneck 0.673766 -0.969347 0.200495
head 1.40947 -0.456506 -0.874971
lclavicle 2.67826e-14 3.50011e-15 0
lhumerus -39.881 -28.4505 98.1578
lradius 54.1976 0 0
lwrist 7.26586 0 0
lhand -20.3775 -2.10139 0
lfingers 7.12502 0 0
lthumb 5.97551 27.7963 0
rclavicle 2.67826e-14 3.50011e-15 0
rhumerus -48.8647 -2.93603 -89.1693
rradius 65.9682 0 0
rwrist 12.7606 0 0
rhand -31.0522 -29.536 0
rfingers 7.12502 0 0
rthumb -4.3335 -779.472 0
445
root 1.64186 15.3377 -8.91648 5.4732 10.4291 -14.0565
lfemur -48.5593 17.5358 2.2463
ltibia 62.9423 0 0
lfoot -24.7896 -10.467 0
ltoes -10.7785 0 0
rfemur -11.8677 -3.14117 9.24124
rtibia 37.4356 0 0
rfoot -11.7286 -14.9061 0
rtoes -53.1319 0 0
lowerback 5.40486 1.39303 4.65638
upperback 0.774375 2.15001 1.19114
thorax -2.10567 1.04165 -1.54622
lowerneck -7.28838 -0.591729 5.16521
upperneck 0.701149 -1.24229 0.250307
head 1.41734 -0.592187 -0.844036
lclavicle 2.42703e-14 1.96098e-15 0
lhumerus -40.0859 -28.3566 98.4659
lradius 54.1572 0 0
lwrist 6.90513 0 0
lhand -20.6245 -2.61863 0
lfingers 7.12502 0 0
lthumb 5.73724 27.2891 0
rclavicle 2.42703e-14 1.96098e-15 0
rhumerus -49.1766 -3.13304 -88.7841
rradius 65.7549 0 0
rwrist 12.6362 0 0
rhand -31.1309 -29.7153 0
rfingers 7.12502 0 0
rthumb -4.40956 -779.651 0
446
root 1.69265 15.3731 -8.8504 5.42073 12.336 -14.1895
lfemur -49.0953 17.8098 1.36803
ltibia 62.8295 0 0
lfoot -24.632 -10.3146 0
ltoes -9.80747 0 0
rfemur -10.8025 -3.07271 9.43428
rtibia 36.9805 0 0
rfoot -10.1735 -15.1793 0
rtoes -53.842 0 0
lowerback 5.13428 1.32066 4.75428
upperback 0.681553 2.04647 1.2828
thorax -2.05644 0.989769 -1.49783
lowerneck -7.33569 -0.805131 5.0168
upperneck 0.74881 -1.51813 0.290859
head 1.43297 -0.729084 -0.816687
lclavicle 2.09659e-14 3.67977e-16 0
lhumerus -40.3375 -28.2042 98.7971
lradius 54.0784 0 0
lwrist 6.52767 0 0
lhand -20.9249 -3.20197 0
lfingers 7.12502 0 0
lthumb 5.44755 26.7184 0
rclavicle 2.09659e-14 3.67977e-16 0
rhumerus -49.5188 -3.32166 -88.3386
rradius 65.5255 0 0
rwrist 12.484 0 0
rhand -31.2155 -29.8735 0
rfingers 7.12502 0 0
rthumb -4.49121 -779.808 0
447
root 1.74344 15.4085 -8.78433 5.34991 14.2564 -14.3028
lfemur -49.6093 18.0888 0.366179
ltibia 62.6688 0 0
lfoot -24.4374 -10.0712 0
ltoes -8.70463 0 0
rfemur -9.73625 -3.01822 9.65904
rtibia 36.5438 0 0
rfoot -8.38251 -15.4298 0
rtoes -54.3701 0 0
lowerback 4.83962 1.24734 4.85525
upperback 0.583775 1.94017 1.37467
thorax -1.99893 0.936599 -1.45061
lowerneck -7.38456 -1.02031 4.87019
upperneck 0.814855 -1.79633 0.323167
head 1.45568 -0.866951 -0.792553
lclavicle 1.69711e-14 -1.26497e-15 0
lhumerus -40.6306 -28.0007 99.1487
lradius 53.966 0 0
lwrist 6.13719 0 0
lhand -21.2681 -3.84067 0
lfingers 7.12502 0 0
lthumb 5.11654 26.0943 0
rclavicle 1.69711e-14 -1.26497e-15 0
rhumerus -49.886 -3.49998 -87.8422
rradius 65.2831 0 0
rwrist 12.309 0 0
rhand -31.3037 -30.0113 0
rfingers 7.12502 0 0
rthumb -4.57635 -779.945 0
448
root 1.79423 15.4439 -8.71825 5.26356 16.1861 -14.396
lfemur -50.0978 18.366 -0.742727
ltibia 62.4639 0 0
lfoot -24.2109 -9.7474 0
ltoes -7.48756 0 0
rfemur -8.68036 -2.97599 9.91055
rtibia 36.1336 0 0
rfoot -6.38941 -15.6552 0
rtoes -54.7278 0 0
lowerback 4.52513 1.17334 4.95753
upperback 0.482072 1.83168 1.46603
thorax -1.93444 0.882417 -1.40439
lowerneck -7.43467 -1.23687 4.7252
upperneck 0.89739 -2.07636 0.348244
head 1.48479 -1.00554 -0.77126
lclavicle 1.23879e-14 -2.92395e-15 0
lhumerus -40.96 -27.7537 99.5181
lradius 53.8251 0 0
lwrist 5.73738 0 0
lhand -21.6436 -4.52401 0
lfingers 7.12502 0 0
lthumb 4.75435 25.4269 0
rclavicle 1.23879e-14 -2.92395e-15 0
rhumerus -50.2735 -3.66612 -87.304
rradius 65.0306 0 0
rwrist 12.1162 0 0
rhand -31.3932 -30.1292 0
rfingers 7.12502 0 0
rthumb -4.66287 -780.062 0
449
root 1.84502 15.4792 -8.65218 5.16452 18.1209 -14.4688
lfemur -50.5576 18.6348 -1.94217
ltibia 62.2186 0 0
lfoot -23.9574 -9.35408 0
ltoes -6.1738 0 0
rfemur -7.6464 -2.94429 10.1839
rtibia 35.7583 0 0
rfoot -4.22811 -15.8534 0
rtoes -54.927 0 0
lowerback 4.19508 1.09897 5.05937
upperback 0.377473 1.72156 1.55615
thorax -1.86425 0.827501 -1.35902
lowerneck -7.48575 -1.45441 4.58165
upperneck 0.994522 -2.35767 0.367106
head 1.5196 -1.1446 -0.752434
lclavicle 7.31835e-15 -4.59504e-15 0
lhumerus -41.3204 -27.4704 99.9026
lradius 53.6606 0 0
lwrist 5.33197 0 0
lhand -22.041 -5.24123 0
lfingers 7.12502 0 0
lthumb 4.3711 24.7265 0
rclavicle 7.31835e-15 -4.59504e-15 0
rhumerus -50.676 -3.81816 -86.7334
rradius 64.771 0 0
rwrist 11.9107 0 0
rhand -31.4821 -30.2278 0
rfingers 7.12502 0 0
rthumb -4.74866 -780.16 0
450
root 1.89581 15.5146 -8.58611 5.05563 20.0566 -14.5209
lfemur -50.9857 18.8883 -3.21564
ltibia 61.9368 0 0
lfoot -23.6818 -8.90199 0
ltoes -4.7809 0 0
rfemur -6.64589 -2.92139 10.474
rtibia 35.4261 0 0
rfoot -1.93252 -16.022 0
rtoes -54.9796 0 0
lowerback 3.85374 1.02451 5.15901
upperback 0.271008 1.61038 1.64429
thorax -1.78965 0.77213 -1.31433
lowerneck -7.53751 -1.67252 4.43936
upperneck 1.10436 -2.63975 0.380765
head 1.55944 -1.28389 -0.735703
lclavicle 1.86427e-15 -6.26433e-15 0
lhumerus -41.7068 -27.1585 100.3
lradius 53.4775 0 0
lwrist 4.92463 0 0
lhand -22.4497 -5.98161 0
lfingers 7.12502 0 0
lthumb 3.97692 24.0031 0
rclavicle 1.86427e-15 -6.26433e-15 0
rhumerus -51.0887 -3.9542 -86.1396
rradius 64.5073 0 0
rwrist 11.6974 0 0
rhand -31.5679 -30.3076 0
rfingers 7.12502 0 0
rthumb -4.8316 -780.239 0
